<svg width="18" height="19" viewBox="0 0 18 19" fill="none" xmlns="http://www.w3.org/2000/svg">
<path d="M15.6726 2.82731C15.335 2.48986 14.8773 2.30029 14.4 2.30029C13.9227 2.30029 13.4649 2.48986 13.1274 2.82731L6.29999 9.65471V12.1999H8.84519L15.6726 5.37251C16.01 5.03496 16.1996 4.5772 16.1996 4.09991C16.1996 3.62261 16.01 3.16486 15.6726 2.82731Z" fill="white"/>
<path fill-rule="evenodd" clip-rule="evenodd" d="M1.79999 5.9001C1.79999 5.42271 1.98963 4.96487 2.3272 4.62731C2.66476 4.28974 3.1226 4.1001 3.59999 4.1001H7.19999C7.43868 4.1001 7.6676 4.19492 7.83638 4.3637C8.00517 4.53248 8.09999 4.7614 8.09999 5.0001C8.09999 5.23879 8.00517 5.46771 7.83638 5.63649C7.6676 5.80528 7.43868 5.9001 7.19999 5.9001H3.59999V14.9001H12.6V11.3001C12.6 11.0614 12.6948 10.8325 12.8636 10.6637C13.0324 10.4949 13.2613 10.4001 13.5 10.4001C13.7387 10.4001 13.9676 10.4949 14.1364 10.6637C14.3052 10.8325 14.4 11.0614 14.4 11.3001V14.9001C14.4 15.3775 14.2103 15.8353 13.8728 16.1729C13.5352 16.5105 13.0774 16.7001 12.6 16.7001H3.59999C3.1226 16.7001 2.66476 16.5105 2.3272 16.1729C1.98963 15.8353 1.79999 15.3775 1.79999 14.9001V5.9001Z" fill="white"/>
</svg>
